<?xml version="1.0" encoding="UTF-8" standalone="no"?>
<!-- Created with Inkscape (http://www.inkscape.org/) -->

<svg
   width="5.2916694mm"
   height="5.2916665mm"
   viewBox="0 0 5.2916694 5.2916665"
   version="1.1"
   id="svg4721"
   inkscape:version="1.2.2 (732a01da63, 2022-12-09)"
   sodipodi:docname="airfield.svg"
   xmlns:inkscape="http://www.inkscape.org/namespaces/inkscape"
   xmlns:sodipodi="http://sodipodi.sourceforge.net/DTD/sodipodi-0.dtd"
   xmlns="http://www.w3.org/2000/svg"
   xmlns:svg="http://www.w3.org/2000/svg">
  <sodipodi:namedview
     id="namedview4723"
     pagecolor="#ffffff"
     bordercolor="#000000"
     borderopacity="0.25"
     inkscape:showpageshadow="2"
     inkscape:pageopacity="0.0"
     inkscape:pagecheckerboard="0"
     inkscape:deskcolor="#d1d1d1"
     inkscape:document-units="mm"
     showgrid="false"
     inkscape:zoom="0.69130191"
     inkscape:cx="-128.01932"
     inkscape:cy="-52.075655"
     inkscape:window-width="1920"
     inkscape:window-height="974"
     inkscape:window-x="-11"
     inkscape:window-y="-11"
     inkscape:window-maximized="1"
     inkscape:current-layer="layer1" />
  <defs
     id="defs4718" />
  <g
     inkscape:label="Layer 1"
     inkscape:groupmode="layer"
     id="layer1"
     transform="translate(-138.96499,-162.31164)">
    <g
       id="g4704"
       transform="translate(87.525818,113.73789)">
      <rect
         style="fill:none;fill-opacity:1;stroke-width:0.133685"
         id="rect238-8-4-1-7-4-26-8-8"
         width="5.2916665"
         height="5.2916665"
         x="-53.865414"
         y="-56.730839"
         transform="matrix(0,-1,-1,0,0,0)" />
      <path
         fill-rule="evenodd"
         fill="#8461c4"
         d="m 56.466258,51.21958 c 0,-0.291263 -0.781368,-0.39077 -0.781368,-0.39077 h -0.76916 l -1.379603,-1.95385 h -0.390685 l 0.488355,1.95385 h -0.940084 l -0.524982,-0.78154 h -0.390684 l 0.293013,1.17231 -0.293013,1.17231 h 0.390684 l 0.524982,-0.78154 h 0.940084 l -0.488355,1.95385 h 0.390685 l 1.379603,-1.95385 h 0.76916 c 0,0 0.781368,-0.09951 0.781368,-0.39077 z"
         id="path130-2-0-6"
         style="fill:none;fill-opacity:1;stroke:#ffffff;stroke-width:0.529167;stroke-dasharray:none;stroke-opacity:1" />
      <path
         fill-rule="evenodd"
         fill="#8461c4"
         d="m 56.466258,51.21958 c 0,-0.291263 -0.781368,-0.39077 -0.781368,-0.39077 h -0.76916 l -1.379603,-1.95385 h -0.390685 l 0.488355,1.95385 h -0.940084 l -0.524982,-0.78154 h -0.390684 l 0.293013,1.17231 -0.293013,1.17231 h 0.390684 l 0.524982,-0.78154 h 0.940084 l -0.488355,1.95385 h 0.390685 l 1.379603,-1.95385 h 0.76916 c 0,0 0.781368,-0.09951 0.781368,-0.39077 z"
         id="path130-2-8"
         style="fill:#8f0000;fill-opacity:1;stroke-width:0.264583" />
    </g>
  </g>
</svg>
