<?xml version="1.0" encoding="UTF-8" standalone="no"?>
<!-- Created with Inkscape (http://www.inkscape.org/) -->

<svg
   width="23.00029"
   height="39.999992"
   viewBox="0 0 6.0854934 10.583332"
   version="1.1"
   id="svg1537"
   inkscape:version="1.2.2 (732a01da63, 2022-12-09)"
   sodipodi:docname="bailiwick.svg"
   xmlns:inkscape="http://www.inkscape.org/namespaces/inkscape"
   xmlns:sodipodi="http://sodipodi.sourceforge.net/DTD/sodipodi-0.dtd"
   xmlns="http://www.w3.org/2000/svg"
   xmlns:svg="http://www.w3.org/2000/svg">
  <sodipodi:namedview
     id="namedview1539"
     pagecolor="#ffffff"
     bordercolor="#000000"
     borderopacity="0.25"
     inkscape:showpageshadow="2"
     inkscape:pageopacity="0.0"
     inkscape:pagecheckerboard="0"
     inkscape:deskcolor="#d1d1d1"
     inkscape:document-units="px"
     showgrid="false"
     inkscape:zoom="7.8211883"
     inkscape:cx="-10.548269"
     inkscape:cy="20.840823"
     inkscape:window-width="1920"
     inkscape:window-height="974"
     inkscape:window-x="-11"
     inkscape:window-y="-11"
     inkscape:window-maximized="1"
     inkscape:current-layer="layer1" />
  <defs
     id="defs1534" />
  <g
     inkscape:label="Layer 1"
     inkscape:groupmode="layer"
     id="layer1"
     transform="translate(-116.90671,-146.48005)">
    <g
       id="g4723"
       transform="translate(102.80368,92.134933)">
      <rect
         style="fill:none;stroke:#ffffff;stroke-width:0.529167;stroke-linejoin:round;stroke-dasharray:none;stroke-opacity:1"
         id="rect1295-0-3-2-6-4-4-0-5-1-1"
         width="0.26458332"
         height="0.79374999"
         x="-15.426041"
         y="63.076359"
         transform="scale(-1,1)" />
      <rect
         style="fill:none;stroke:#ffffff;stroke-width:0.529167;stroke-linejoin:round;stroke-dasharray:none;stroke-opacity:1"
         id="rect1295-0-3-2-6-4-4-3-1-9-3-7"
         width="1.8520833"
         height="0.79374999"
         x="-63.870106"
         y="14.367615"
         transform="rotate(-90)" />
      <path
         id="path1136-3-7-0-2-6-0-0"
         style="fill:none;stroke:#ffffff;stroke-width:0.529167;stroke-linejoin:round;stroke-dasharray:none;stroke-opacity:1"
         d="m 18.60104,60.430521 h -2.11667 c 0,0.5845 0.47384,1.05833 1.05834,1.05833 0.5845,0 1.05833,-0.47383 1.05833,-1.05833 z"
         sodipodi:nodetypes="cccc" />
      <rect
         style="fill:none;stroke:#ffffff;stroke-width:0.529167;stroke-linejoin:round;stroke-dasharray:none;stroke-opacity:1"
         id="rect1295-3-4-1-5-9-7-6"
         width="2.1166666"
         height="0.26458332"
         x="16.484375"
         y="60.165928" />
      <rect
         style="fill:none;stroke:#ffffff;stroke-width:0.529167;stroke-linejoin:round;stroke-dasharray:none;stroke-opacity:1"
         id="rect1295-37-0-7-6-9-5-1"
         width="2.1166666"
         height="0.26458332"
         x="16.484367"
         y="60.694981" />
      <rect
         style="fill:none;fill-opacity:1;stroke:#ffffff;stroke-width:0.529167;stroke-linejoin:round;stroke-dasharray:none;stroke-opacity:1"
         id="rect1295-8-4-5-9-7-36-9"
         width="2.1166666"
         height="0.26458332"
         x="16.484375"
         y="59.901356" />
      <path
         id="rect1295-0-0-9-7-1-5-6-5-8"
         style="fill:none;fill-opacity:1;stroke:#ffffff;stroke-width:0.529167;stroke-linejoin:round;stroke-dasharray:none;stroke-opacity:1"
         d="m 16.21979,61.753441 h 2.64583 v 2.91042 h -2.64583 z" />
      <path
         id="path1136-3-1-0-8-7-8-9-5"
         style="fill:none;stroke:#ffffff;stroke-width:0.529167;stroke-linejoin:round;stroke-dasharray:none;stroke-opacity:1"
         d="m 18.86562,61.753441 v 0.79375 h 0.79375 c 0,-0.43838 -0.35537,-0.79375 -0.79375,-0.79375 z"
         sodipodi:nodetypes="cccc" />
      <rect
         style="fill:none;stroke:#ffffff;stroke-width:0.529167;stroke-linejoin:round;stroke-dasharray:none;stroke-opacity:1"
         id="rect1295-0-3-2-5-0-8-3-1"
         width="0.79374999"
         height="2.1166666"
         x="18.865631"
         y="62.547199" />
      <path
         id="path1136-3-1-0-6-4-5-0-0-1"
         style="fill:none;stroke:#ffffff;stroke-width:0.529167;stroke-linejoin:round;stroke-dasharray:none;stroke-opacity:1"
         d="m 16.21979,61.753441 v 0.79375 h -0.79375 c 0,-0.43838 0.35537,-0.79375 0.79375,-0.79375 z"
         sodipodi:nodetypes="cccc" />
      <rect
         style="fill:none;stroke:#ffffff;stroke-width:0.529167;stroke-linejoin:round;stroke-dasharray:none;stroke-opacity:1"
         id="rect1295-0-3-2-6-4-9-3-8-9"
         width="0.79374999"
         height="1.3229167"
         x="-16.219788"
         y="62.547184"
         transform="scale(-1,1)" />
      <path
         id="rect1295-0-0-9-7-1-1-5-1-84-9"
         style="fill:none;stroke:#ffffff;stroke-width:0.529167;stroke-linejoin:round;stroke-dasharray:none;stroke-opacity:1"
         d="m 14.63219,56.726361 h 0.26458 v 7.9375 h -0.26458 z" />
      <path
         id="rect1295-0-0-9-7-1-1-4-9-8-8-4"
         style="fill:none;stroke:#ffffff;stroke-width:0.529167;stroke-linejoin:round;stroke-dasharray:none;stroke-opacity:1"
         d="m 14.63219,54.609701 h 0.26458 v 2.11666 h -0.26458 z" />
      <path
         id="rect1295-0-0-9-7-1-4-9-7-6-5"
         style="fill:none;stroke:#ffffff;stroke-width:0.529167;stroke-linejoin:round;stroke-dasharray:none;stroke-opacity:1"
         d="m 15.16136,56.726361 -0.26459,0.26459 v -0.26459 z"
         sodipodi:nodetypes="cccc" />
      <path
         id="rect1295-0-0-9-7-1-4-7-0-7-8-2"
         style="fill:none;stroke:#ffffff;stroke-width:0.529167;stroke-linejoin:round;stroke-dasharray:none;stroke-opacity:1"
         d="m 14.36761,56.726361 0.26458,0.26459 v -0.26459 z"
         sodipodi:nodetypes="cccc" />
      <path
         id="rect1295-0-0-9-7-1-4-76-7-8-5-7"
         style="fill:none;stroke:#ffffff;stroke-width:0.529167;stroke-linejoin:round;stroke-dasharray:none;stroke-opacity:1"
         d="m 15.16136,56.726361 -0.26459,-2.11666 v 2.11666 z"
         sodipodi:nodetypes="cccc" />
      <path
         id="rect1295-0-0-9-7-1-4-7-6-5-1-6-6"
         style="fill:none;stroke:#ffffff;stroke-width:0.529167;stroke-linejoin:round;stroke-dasharray:none;stroke-opacity:1"
         d="m 14.36761,56.726361 0.26458,-2.11666 v 2.11666 z"
         sodipodi:nodetypes="cccc" />
      <rect
         style="fill:none;fill-opacity:1;stroke:#ffffff;stroke-width:0.529167;stroke-linejoin:round;stroke-dasharray:none;stroke-opacity:1"
         id="rect1295-8-3-3-1-0-5-3-1-4"
         width="1.3229166"
         height="0.26458332"
         x="16.219788"
         y="59.636768" />
      <rect
         style="fill:none;fill-opacity:1;stroke:#ffffff;stroke-width:0.529167;stroke-linejoin:round;stroke-dasharray:none;stroke-opacity:1"
         id="rect1295-8-3-3-1-0-1-0-6-0-7"
         width="1.3229166"
         height="0.26458332"
         x="17.542709"
         y="59.636768" />
      <path
         id="path1136-3-1-0-8-2-9-3-1-3-5"
         style="fill:none;fill-opacity:1;stroke:#ffffff;stroke-width:0.529167;stroke-linejoin:round;stroke-dasharray:none;stroke-opacity:1"
         d="m 17.54271,57.803291 v 1.83348 h 1.05833 c 0,-0.78352 -0.42559,-1.46752 -1.05833,-1.83348 z" />
      <path
         id="path1136-3-1-0-8-2-9-9-7-7-7-3"
         style="fill:none;fill-opacity:1;stroke:#ffffff;stroke-width:0.529167;stroke-linejoin:round;stroke-dasharray:none;stroke-opacity:1"
         d="m 17.54271,57.803291 v 1.83348 h -1.05834 c 0,-0.78352 0.4256,-1.46752 1.05834,-1.83348 z" />
      <g
         id="g4671"
         transform="translate(0.264559)">
        <path
           d="m 17.278032,54.609701 c -0.377971,0 -0.377971,0.37797 -0.377971,0.37797 l -1.152699,0.37798 v 0.37797 l -0.850451,1.625402 c 0,0.37797 0.29936,0.75595 0.94495,0.75595 0.64558,0 0.944941,-0.37798 0.944941,-0.75595 l -0.850451,-1.625402 h 0.96371 v 2.721378 h -1.51191 l -0.37797,0.37798 h 4.535711 l -0.377981,-0.37798 h -1.5119 v -2.721378 h 0.963931 l -0.850441,1.625402 c 0,0.37797 0.292151,0.75595 0.94494,0.75595 0.652781,0 0.94494,-0.37798 0.94494,-0.75595 l -0.850449,-1.625402 v -0.37797 l -1.152921,-0.37798 c 0,0 0,-0.37797 -0.377979,-0.37797 z m -1.436171,1.5119 0.66145,1.247422 h -1.322909 z m 2.87258,0 0.66145,1.247422 h -1.322909 z"
           id="courthouse-0-8-0"
           style="fill:none;fill-opacity:1;stroke:#ffffff;stroke-width:0.529167;stroke-linejoin:round;stroke-dasharray:none;stroke-opacity:1"
           sodipodi:nodetypes="sccccsccccccccccccsccccscccccccc" />
        <path
           d="m 17.278032,54.609701 c -0.377971,0 -0.377971,0.37797 -0.377971,0.37797 l -1.152699,0.37798 v 0.37797 l -0.850451,1.625402 c 0,0.37797 0.29936,0.75595 0.94495,0.75595 0.64558,0 0.944941,-0.37798 0.944941,-0.75595 l -0.850451,-1.625402 h 0.96371 v 2.721378 h -1.51191 l -0.37797,0.37798 h 4.535711 l -0.377981,-0.37798 h -1.5119 v -2.721378 h 0.963931 l -0.850441,1.625402 c 0,0.37797 0.292151,0.75595 0.94494,0.75595 0.652781,0 0.94494,-0.37798 0.94494,-0.75595 l -0.850449,-1.625402 v -0.37797 l -1.152921,-0.37798 c 0,0 0,-0.37797 -0.377979,-0.37797 z m -1.436171,1.5119 0.66145,1.247422 h -1.322909 z m 2.87258,0 0.66145,1.247422 h -1.322909 z"
           id="courthouse-0-8"
           style="fill:#0000a2;fill-opacity:1;stroke-width:0.264583"
           sodipodi:nodetypes="sccccsccccccccccccsccccscccccccc" />
      </g>
      <rect
         style="fill:#0000ff;stroke-width:1.32292;stroke-linejoin:bevel"
         id="rect1295-0-3-2-6-4-4-0-5-1"
         width="0.26458332"
         height="0.79374999"
         x="-15.426041"
         y="63.076359"
         transform="scale(-1,1)" />
      <rect
         style="fill:#0000ff;stroke-width:1.32292;stroke-linejoin:bevel"
         id="rect1295-0-3-2-6-4-4-3-1-9-3"
         width="1.8520833"
         height="0.79374999"
         x="-63.870106"
         y="14.367615"
         transform="rotate(-90)" />
      <path
         id="path1136-3-7-0-2-6-0"
         style="fill:#0000ff;stroke-width:1.32292;stroke-linejoin:bevel"
         d="m 18.60104,60.430521 h -2.11667 c 0,0.5845 0.47384,1.05833 1.05834,1.05833 0.5845,0 1.05833,-0.47383 1.05833,-1.05833 z"
         sodipodi:nodetypes="cccc" />
      <rect
         style="fill:#0000ff;stroke-width:1.32292;stroke-linejoin:bevel"
         id="rect1295-3-4-1-5-9-7"
         width="2.1166666"
         height="0.26458332"
         x="16.484375"
         y="60.165928" />
      <rect
         style="fill:none;stroke-width:1.32292;stroke-linejoin:bevel"
         id="rect1295-37-0-7-6-9-5"
         width="2.1166666"
         height="0.26458332"
         x="16.484367"
         y="60.694981" />
      <rect
         style="fill:#ffffff;fill-opacity:1;stroke-width:1.32292;stroke-linejoin:bevel"
         id="rect1295-8-4-5-9-7-36"
         width="2.1166666"
         height="0.26458332"
         x="16.484375"
         y="59.901356" />
      <path
         id="rect1295-0-0-9-7-1-5-6-5"
         style="fill:#0000c5;fill-opacity:1;stroke-width:1.32292;stroke-linejoin:bevel"
         d="m 16.21979,61.753441 h 2.64583 v 2.91042 h -2.64583 z" />
      <path
         id="path1136-3-1-0-8-7-8-9"
         style="fill:#0000ff;stroke-width:1.32292;stroke-linejoin:bevel"
         d="m 18.86562,61.753441 v 0.79375 h 0.79375 c 0,-0.43838 -0.35537,-0.79375 -0.79375,-0.79375 z"
         sodipodi:nodetypes="cccc" />
      <rect
         style="fill:#0000ff;stroke-width:1.32292;stroke-linejoin:bevel"
         id="rect1295-0-3-2-5-0-8-3"
         width="0.79374999"
         height="2.1166666"
         x="18.865631"
         y="62.547199" />
      <path
         id="path1136-3-1-0-6-4-5-0-0"
         style="fill:#0000ff;stroke-width:1.32292;stroke-linejoin:bevel"
         d="m 16.21979,61.753441 v 0.79375 h -0.79375 c 0,-0.43838 0.35537,-0.79375 0.79375,-0.79375 z"
         sodipodi:nodetypes="cccc" />
      <rect
         style="fill:#0000ff;stroke-width:1.32292;stroke-linejoin:bevel"
         id="rect1295-0-3-2-6-4-9-3-8"
         width="0.79374999"
         height="1.3229167"
         x="-16.219788"
         y="62.547184"
         transform="scale(-1,1)" />
      <path
         id="rect1295-0-0-9-7-1-1-5-1-84"
         style="fill:#0000ff;stroke-width:1.32292;stroke-linejoin:bevel"
         d="m 14.63219,56.726361 h 0.26458 v 7.9375 h -0.26458 z" />
      <path
         id="rect1295-0-0-9-7-1-1-4-9-8-8"
         style="fill:#0000ff;stroke-width:1.32292;stroke-linejoin:bevel"
         d="m 14.63219,54.609701 h 0.26458 v 2.11666 h -0.26458 z" />
      <path
         id="rect1295-0-0-9-7-1-4-9-7-6"
         style="fill:#0000ff;stroke-width:1.32292;stroke-linejoin:bevel"
         d="m 15.16136,56.726361 -0.26459,0.26459 v -0.26459 z"
         sodipodi:nodetypes="cccc" />
      <path
         id="rect1295-0-0-9-7-1-4-7-0-7-8"
         style="fill:#0000ff;stroke-width:1.32292;stroke-linejoin:bevel"
         d="m 14.36761,56.726361 0.26458,0.26459 v -0.26459 z"
         sodipodi:nodetypes="cccc" />
      <path
         id="rect1295-0-0-9-7-1-4-76-7-8-5"
         style="fill:#0000ff;stroke-width:1.32292;stroke-linejoin:bevel"
         d="m 15.16136,56.726361 -0.26459,-2.11666 v 2.11666 z"
         sodipodi:nodetypes="cccc" />
      <path
         id="rect1295-0-0-9-7-1-4-7-6-5-1-6"
         style="fill:#0000ff;stroke-width:1.32292;stroke-linejoin:bevel"
         d="m 14.36761,56.726361 0.26458,-2.11666 v 2.11666 z"
         sodipodi:nodetypes="cccc" />
      <rect
         style="fill:#0000ff;fill-opacity:1;stroke-width:1.32292;stroke-linejoin:bevel"
         id="rect1295-8-3-3-1-0-5-3-1"
         width="1.3229166"
         height="0.26458332"
         x="16.219788"
         y="59.636768" />
      <rect
         style="fill:#0000ff;fill-opacity:1;stroke-width:1.32292;stroke-linejoin:bevel"
         id="rect1295-8-3-3-1-0-1-0-6-0"
         width="1.3229166"
         height="0.26458332"
         x="17.542709"
         y="59.636768" />
      <g
         id="g4675">
        <path
           id="path1136-3-1-0-8-2-9-3-1-3"
           style="fill:#0000ff;fill-opacity:1;stroke-width:1.32292;stroke-linejoin:bevel"
           d="m 17.54271,57.803291 v 1.83348 h 1.05833 c 0,-0.78352 -0.42559,-1.46752 -1.05833,-1.83348 z" />
        <path
           id="path1136-3-1-0-8-2-9-9-7-7-7"
           style="fill:#0000ff;fill-opacity:1;stroke-width:1.32292;stroke-linejoin:bevel"
           d="m 17.54271,57.803291 v 1.83348 h -1.05834 c 0,-0.78352 0.4256,-1.46752 1.05834,-1.83348 z" />
      </g>
    </g>
  </g>
</svg>
