<?xml version="1.0" encoding="UTF-8" standalone="no"?>
<svg
   id="svg2"
   viewBox="0 0 20 20"
   height="20"
   width="20"
   version="1.1"
   sodipodi:docname="department_store.svg"
   inkscape:version="1.2.2 (732a01da63, 2022-12-09)"
   xmlns:inkscape="http://www.inkscape.org/namespaces/inkscape"
   xmlns:sodipodi="http://sodipodi.sourceforge.net/DTD/sodipodi-0.dtd"
   xmlns="http://www.w3.org/2000/svg"
   xmlns:svg="http://www.w3.org/2000/svg"
   xmlns:rdf="http://www.w3.org/1999/02/22-rdf-syntax-ns#"
   xmlns:cc="http://creativecommons.org/ns#"
   xmlns:dc="http://purl.org/dc/elements/1.1/">
  <sodipodi:namedview
     id="namedview4249"
     pagecolor="#ffffff"
     bordercolor="#000000"
     borderopacity="0.25"
     inkscape:showpageshadow="2"
     inkscape:pageopacity="0.0"
     inkscape:pagecheckerboard="0"
     inkscape:deskcolor="#d1d1d1"
     showgrid="false"
     inkscape:zoom="13.857143"
     inkscape:cx="26.087629"
     inkscape:cy="1.2268041"
     inkscape:window-width="1920"
     inkscape:window-height="974"
     inkscape:window-x="-11"
     inkscape:window-y="-11"
     inkscape:window-maximized="1"
     inkscape:current-layer="svg2" />
  <defs
     id="defs3053" />
  <metadata
     id="metadata8">
    <rdf:RDF>
      <cc:Work
         rdf:about="">
        <dc:format>image/svg+xml</dc:format>
        <dc:type
           rdf:resource="http://purl.org/dc/dcmitype/StillImage" />
      </cc:Work>
    </rdf:RDF>
  </metadata>
  <rect
     style="visibility:hidden;fill:none;stroke:none"
     id="canvas"
     y="-1.0412374"
     x="30.350515"
     height="14"
     width="14" />
  <g
     id="g30405"
     transform="translate(30.350515,-1.0412374)">
    <path
       id="variety_store"
       d="m -23.207658,1.0412374 c -1.428572,0 -1.428572,0 -1.428572,1.4285714 l 0.01396,4.2857142 h -4.299671 v 12.857142 c 0,1.428572 0,1.428572 1.428572,1.428572 h 14.285713 c 1.428572,0 1.428572,0 1.428572,-1.428572 V 6.755523 h -4.229912 l -0.0558,-4.2857142 c -5e-6,-1.4285714 -5e-6,-1.4285714 -1.428577,-1.4285714 z m 0,1.4285714 h 5.714285 V 6.755523 h -5.714285 z m 2.240513,6.4285713 c 1.091592,0 1.892485,0.2137424 2.405134,0.6361607 0.51265,0.4224181 0.767299,0.9282312 0.767299,1.5178572 0,0.330014 -0.07528,0.645047 -0.234375,0.94866 -0.154679,0.303613 -0.342646,0.550189 -0.563616,0.739397 -0.22097,0.189209 -0.615724,0.471408 -1.185826,0.845425 0.472876,0.47082 0.963354,0.909356 1.476004,1.314174 0.137003,-0.272812 0.254337,-0.561343 0.351563,-0.864956 l 2.106585,0.46596 c -0.110486,0.387217 -0.216432,0.698708 -0.318081,0.93192 -0.101645,0.23321 -0.244073,0.509079 -0.429687,0.825893 l 1.012835,0.691964 c 0.123743,0.0792 0.285456,0.174599 0.47991,0.284599 l -1.453683,1.662946 c -0.265164,-0.140806 -0.541421,-0.303473 -0.828683,-0.488282 -0.282841,-0.184808 -0.536328,-0.345106 -0.761718,-0.47712 -0.468455,0.308013 -0.937796,0.534423 -1.40625,0.675223 -0.649651,0.193619 -1.386184,0.290179 -2.212612,0.290179 -1.294882,0 -2.258651,-0.269536 -2.890625,-0.806362 -0.631973,-0.536823 -0.94866,-1.187491 -0.94866,-1.953126 -10e-7,-0.550022 0.186806,-1.068498 0.558035,-1.556919 0.37123,-0.492821 0.977881,-0.908395 1.821987,-1.247209 -0.353552,-0.426819 -0.595655,-0.795288 -0.728237,-1.107701 -0.13258,-0.316814 -0.198102,-0.639788 -0.198102,-0.965402 0,-0.686429 0.260922,-1.249219 0.78683,-1.6936381 0.525908,-0.4444194 1.324479,-0.6696427 2.393973,-0.6696428 z m 0.111607,1.4508929 c -0.274002,0 -0.497286,0.08155 -0.669643,0.239955 -0.172356,0.158407 -0.256696,0.345217 -0.256696,0.560826 0,0.272812 0.242104,0.669393 0.728237,1.188616 0.349133,-0.189208 0.619116,-0.39383 0.809151,-0.613839 0.190035,-0.22441 0.284599,-0.438152 0.284599,-0.636161 0,-0.206809 -0.07806,-0.378167 -0.237166,-0.518973 -0.159098,-0.145205 -0.38006,-0.220424 -0.658482,-0.220424 z M -22.016252,14.688 c -0.371228,0.259612 -0.615655,0.482046 -0.739397,0.666852 -0.119328,0.184809 -0.181362,0.379129 -0.181362,0.585939 0,0.321211 0.140106,0.608563 0.418527,0.859374 0.278422,0.250812 0.641811,0.376675 1.088169,0.376675 0.481715,0 1.022847,-0.189599 1.623884,-0.563616 -0.574521,-0.440017 -1.312682,-1.080387 -2.209821,-1.925224 z"
       style="opacity:1;fill:#cf7900;fill-opacity:1;stroke:none;stroke-width:8;stroke-miterlimit:4;stroke-dasharray:none;stroke-dashoffset:0;stroke-opacity:1" />
    <rect
       style="fill:none;fill-opacity:1;stroke-width:0.505266"
       id="rect238-8-4-1-7-4"
       width="20"
       height="20"
       x="10.350515"
       y="1.0412374"
       transform="scale(-1,1)" />
  </g>
</svg>
