<?xml version="1.0" encoding="UTF-8" standalone="no"?>
<svg
   id="svg2"
   viewBox="0 0 19.999998 20"
   height="20"
   width="19.999998"
   version="1.1"
   sodipodi:docname="hairdresser.svg"
   inkscape:version="1.2.2 (732a01da63, 2022-12-09)"
   xmlns:inkscape="http://www.inkscape.org/namespaces/inkscape"
   xmlns:sodipodi="http://sodipodi.sourceforge.net/DTD/sodipodi-0.dtd"
   xmlns="http://www.w3.org/2000/svg"
   xmlns:svg="http://www.w3.org/2000/svg"
   xmlns:rdf="http://www.w3.org/1999/02/22-rdf-syntax-ns#"
   xmlns:cc="http://creativecommons.org/ns#"
   xmlns:dc="http://purl.org/dc/elements/1.1/">
  <sodipodi:namedview
     id="namedview1015"
     pagecolor="#ffffff"
     bordercolor="#000000"
     borderopacity="0.25"
     inkscape:showpageshadow="2"
     inkscape:pageopacity="0.0"
     inkscape:pagecheckerboard="0"
     inkscape:deskcolor="#d1d1d1"
     showgrid="false"
     inkscape:zoom="8.5736697"
     inkscape:cx="16.504018"
     inkscape:cy="10.147347"
     inkscape:window-width="1920"
     inkscape:window-height="974"
     inkscape:window-x="-11"
     inkscape:window-y="-11"
     inkscape:window-maximized="1"
     inkscape:current-layer="svg2" />
  <metadata
     id="metadata8">
    <rdf:RDF>
      <cc:Work
         rdf:about="">
        <dc:format>image/svg+xml</dc:format>
        <dc:type
           rdf:resource="http://purl.org/dc/dcmitype/StillImage" />
      </cc:Work>
    </rdf:RDF>
  </metadata>
  <defs
     id="defs6" />
  <path
     d="M 5.7142856,0 V 13.616071 C 5.1146613,13.160591 4.377907,12.857142 3.5714285,12.857142 1.6074428,12.857142 0,14.464585 0,16.428571 c 0,1.963986 1.6074428,3.571428 3.5714285,3.571428 1.7184871,0 3.1476171,-1.233751 3.4821424,-2.857142 h 0.178572 c 0.334526,1.623391 1.763655,2.857142 3.4821421,2.857142 1.963986,0 3.571429,-1.607442 3.571429,-3.571428 0,-1.963986 -1.607443,-3.571429 -3.571429,-3.571429 -0.8064781,0 -1.5432321,0.303449 -2.1428571,0.758929 V 0 Z m 5.7142854,0 v 2.8571428 h 5.714286 v 1.4285714 h -5.714286 v 1.4285714 h 5.714286 v 1.4285715 h -5.714286 v 1.428571 h 5.714286 V 10 h -5.714286 v 1.428571 h 5.714286 v 8.571428 h 2.857142 V 2.8571428 C 19.999999,1.4285714 18.571428,0 17.142857,0 Z M 3.5714285,14.285714 c 1.1919271,0 2.1428571,0.95093 2.1428571,2.142857 0,1.191927 -0.95093,2.142857 -2.1428571,2.142857 -1.1919271,0 -2.1428571,-0.95093 -2.1428571,-2.142857 0,-1.191927 0.95093,-2.142857 2.1428571,-2.142857 z m 7.1428565,0 c 1.191927,0 2.142857,0.95093 2.142857,2.142857 0,1.191927 -0.95093,2.142857 -2.142857,2.142857 -1.1919271,0 -2.1428571,-0.95093 -2.1428571,-2.142857 0,-1.191927 0.95093,-2.142857 2.1428571,-2.142857 z"
     id="hairdresser"
     style="fill:#cf7900;fill-opacity:1;stroke:none;stroke-width:1" />
</svg>
