<?xml version="1.0" encoding="UTF-8" standalone="no"?>
<!-- Created with Inkscape (http://www.inkscape.org/) -->

<svg
   width="5.2916665mm"
   height="5.2968597mm"
   viewBox="0 0 5.2916665 5.2968597"
   version="1.1"
   id="svg3425"
   inkscape:version="1.2.2 (732a01da63, 2022-12-09)"
   sodipodi:docname="column.svg"
   xmlns:inkscape="http://www.inkscape.org/namespaces/inkscape"
   xmlns:sodipodi="http://sodipodi.sourceforge.net/DTD/sodipodi-0.dtd"
   xmlns="http://www.w3.org/2000/svg"
   xmlns:svg="http://www.w3.org/2000/svg">
  <sodipodi:namedview
     id="namedview3427"
     pagecolor="#ffffff"
     bordercolor="#000000"
     borderopacity="0.25"
     inkscape:showpageshadow="2"
     inkscape:pageopacity="0.0"
     inkscape:pagecheckerboard="0"
     inkscape:deskcolor="#d1d1d1"
     inkscape:document-units="mm"
     showgrid="false"
     inkscape:zoom="2.7652076"
     inkscape:cx="21.517372"
     inkscape:cy="14.827096"
     inkscape:window-width="1920"
     inkscape:window-height="974"
     inkscape:window-x="-11"
     inkscape:window-y="-11"
     inkscape:window-maximized="1"
     inkscape:current-layer="layer1" />
  <defs
     id="defs3422" />
  <g
     inkscape:label="Layer 1"
     inkscape:groupmode="layer"
     id="layer1"
     transform="translate(-159.24979,-154.65441)">
    <g
       id="g3365"
       transform="translate(119.45931,109.92877)">
      <g
         id="g3359"
         transform="matrix(0.93062649,0,0,0.94061018,2.0165858,1.5654621)"
         style="stroke-width:1.06883">
        <path
           d="m 43.432817,46.240132 c 0,0 -0.709975,0.533835 -0.709975,0.713381 v 2.853527 h 1.419951 v -2.853527 c 0,-0.170996 -0.709976,-0.713381 -0.709976,-0.713381 z m -1.064963,3.923599 c -0.354988,0 -0.354988,0.35669 -0.354988,0.713381 h -0.354987 l -0.354988,0.356691 h 4.259853 l -0.354988,-0.356691 h -0.354987 c 0,-0.356691 0,-0.713381 -0.354988,-0.713381 z"
           id="monument-6"
           style="fill:#734a08;fill-opacity:1;stroke:#ffffff;stroke-width:0.565588;stroke-dasharray:none;stroke-opacity:1" />
        <path
           d="m 43.432817,46.20643 c 0,0 -0.709975,0.533835 -0.709975,0.713381 v 2.853527 h 1.419951 v -2.853527 c 0,-0.170996 -0.709976,-0.713381 -0.709976,-0.713381 z m -1.064963,3.923599 c -0.354988,0 -0.354988,0.35669 -0.354988,0.713381 h -0.354987 l -0.354988,0.356691 h 4.259853 L 45.207756,50.84341 h -0.354987 c 0,-0.356691 0,-0.713381 -0.354988,-0.713381 z"
           id="monument-6-9"
           style="fill:#734a08;fill-opacity:1;stroke:none;stroke-width:0.565588;stroke-dasharray:none;stroke-opacity:1" />
      </g>
      <rect
         style="fill:none;fill-opacity:1;stroke-width:0.133685"
         id="rect238-8-4-1-7-4-10-9"
         width="5.2916665"
         height="5.2916665"
         x="-45.08215"
         y="44.730831"
         transform="scale(-1,1)" />
    </g>
  </g>
</svg>
